<?xml version="1.0" encoding="UTF-8" standalone="no"?>
<svg
   width="350mm"
   height="350mm"
   viewBox="0 0 350 350"
   version="1.1"
   id="strongbox"
   xmlns="http://www.w3.org/2000/svg"
   xmlns:svg="http://www.w3.org/2000/svg">
  <rect
     id="border"
     style="display:inline;fill:#ffffff;stroke:#e5e5e5;stroke-width:20;"
     width="330"
     height="330"
     x="10"
     y="10" />
  <path
     id="logo"
     style="display:inline;fill:#491c46;fill-opacity:1;stroke-width:1"
     d="m 137.80906,309.73285 c -0.89263,-0.31908 -2.34468,-1.04328 -3.22677,-1.60932 -1.65142,-1.05972 -5.20009,-4.55218 -5.20009,-5.11774 0,-0.17504 0.33991,-0.72407 0.75535,-1.22009 3.48436,-4.16012 7.88795,-13.32986 10.46857,-21.79909 4.41005,-14.47313 6.45782,-29.74948 6.45782,-48.17532 0,-10.2879 -0.31378,-15.60265 -1.42754,-24.17923 -2.62897,-20.2445 -7.79507,-35.36878 -15.78979,-46.22617 -0.38084,-0.51721 -0.42829,-0.85037 -0.18568,-1.3037 0.69246,-1.29386 4.55709,-4.52663 6.63325,-5.54872 1.9733,-0.97145 2.42551,-1.06696 5.05209,-1.06696 2.62305,0 3.08023,0.0962 5.03889,1.06046 11.13361,5.48106 19.62613,27.27439 22.77348,58.44085 0.80416,7.96304 0.80416,29.68391 0,37.64694 -3.14089,31.10253 -11.64309,52.96138 -22.72106,58.41504 -2.67961,1.31917 -6.0931,1.58939 -8.62852,0.68305 z m 67.59636,0.11877 c -11.92453,-3.89415 -21.2343,-26.34681 -24.55369,-59.21686 -0.80416,-7.96303 -0.80416,-29.6839 0,-37.64694 3.14735,-31.16646 11.63987,-52.95979 22.77347,-58.44085 1.95867,-0.96423 2.41585,-1.06046 5.0389,-1.06046 2.62658,0 3.07879,0.0955 5.0521,1.06696 2.07615,1.02209 5.94079,4.25486 6.63324,5.54872 0.24261,0.45333 0.19517,0.78649 -0.18568,1.3037 -7.99473,10.85739 -13.16083,25.98167 -15.78979,46.22617 -1.11376,8.57658 -1.42754,13.89133 -1.42754,24.17923 0,10.28791 0.31378,15.60266 1.42754,24.17923 2.62896,20.24451 7.79506,35.36878 15.78979,46.22617 0.67546,0.91732 0.38723,1.41926 -2.21024,3.84906 -2.90735,2.71968 -5.60337,3.98942 -8.75173,4.12181 -1.49573,0.0629 -2.97624,-0.0681 -3.79637,-0.33594 z m 24.99547,-126.29541 c -0.0806,-0.57029 -0.30199,-2.43602 -0.49205,-4.14606 -0.97828,-8.80215 -4.60776,-18.77918 -9.60469,-26.4022 -8.66298,-13.21572 -21.67256,-22.07777 -36.84435,-25.09819 -4.05468,-0.80722 -15.05362,-0.81114 -19.14252,-0.007 -6.02708,1.18556 -12.04613,3.40793 -17.16914,6.33924 -7.671,4.3892 -15.19356,11.61583 -20.11117,19.31999 -4.89288,7.66539 -8.72404,18.67443 -9.35753,26.88931 -0.25619,3.32227 -0.31415,3.39286 -2.21922,2.703 -3.39579,-1.22967 -13.85328,-6.58829 -14.35674,-7.35666 -0.69645,-1.06293 -0.98586,-11.5589 -0.46565,-16.88759 2.05762,-21.07679 14.15957,-40.93925 32.20351,-52.85449 12.72075,-8.400085 26.45567,-12.504505 41.84481,-12.504505 9.01795,0 16.87327,1.3199 25.36382,4.26179 4.09084,1.41743 12.51938,5.649365 16.32622,8.197325 19.72028,13.19897 31.5068,34.09289 32.54104,57.68548 0.17525,3.99758 -0.23117,10.97312 -0.74056,12.71058 -0.26823,0.91487 -15.59902,8.19408 -17.24494,8.18806 -0.21139,-7.7e-4 -0.45027,-0.46801 -0.53084,-1.03829 z M 45.155147,143.22422 c -0.614155,-0.26372 -3.808563,-1.78285 -7.098682,-3.37585 -4.929968,-2.38699 -5.982035,-3.0136 -5.982035,-3.56286 0,-0.79201 5.151598,-11.12861 7.804804,-15.66024 15.1385,-25.856265 37.85127,-47.214196 64.617696,-60.763193 13.86886,-7.020325 27.92574,-11.765974 42.94164,-14.497239 25.0752,-4.560967 49.31736,-3.299499 73.66816,3.833403 42.38449,12.415383 78.01367,42.561844 97.15984,82.208609 1.25361,2.59588 2.2068,4.90865 2.11821,5.13951 -0.0885,0.23085 -1.2142,0.95542 -2.50136,1.61017 -3.03748,1.54508 -11.79297,5.59922 -12.0923,5.59922 -0.1272,0 -1.70404,-1.90229 -3.50408,-4.22731 -8.08836,-10.44725 -16.33252,-18.87115 -26.3051,-26.87859 -24.26546,-19.483835 -53.47875,-31.221107 -85.50322,-34.353373 -5.48603,-0.536581 -23.31866,-0.532976 -28.71377,0.0058 -33.37485,3.332965 -62.918357,15.620488 -88.215075,36.689793 -7.695759,6.40969 -18.626881,17.99413 -24.395739,25.8538 -1.174683,1.60042 -2.303761,2.89816 -2.509064,2.88384 -0.205303,-0.0143 -0.875769,-0.24179 -1.489925,-0.50549 z" />
</svg>
